<svg width="147" height="27" viewBox="0 0 147 27" fill="none" xmlns="http://www.w3.org/2000/svg">
<path d="M4.13672 5.68359H19.7344V8.94141H7.85156V12.5977H18.375V15.6562H7.85156V20.7539H19.9805V24H4.13672V5.68359ZM23.7656 4.55859H27.2344V24H23.7656V4.55859ZM33.5156 8.28516C33.1719 8.28516 32.8594 8.23828 32.5781 8.14453C32.3047 8.04297 32.0703 7.91016 31.875 7.74609C31.6797 7.57422 31.5273 7.37891 31.418 7.16016C31.3164 6.93359 31.2656 6.69531 31.2656 6.44531C31.2656 6.1875 31.3164 5.94922 31.418 5.73047C31.5273 5.50391 31.6797 5.30859 31.875 5.14453C32.0703 4.98047 32.3047 4.85156 32.5781 4.75781C32.8594 4.65625 33.1719 4.60547 33.5156 4.60547C33.8672 4.60547 34.1797 4.65625 34.4531 4.75781C34.7344 4.85156 34.9727 4.98047 35.168 5.14453C35.3633 5.30859 35.5117 5.50391 35.6133 5.73047C35.7227 5.94922 35.7773 6.1875 35.7773 6.44531C35.7773 6.69531 35.7227 6.93359 35.6133 7.16016C35.5117 7.37891 35.3633 7.57422 35.168 7.74609C34.9727 7.91016 34.7344 8.04297 34.4531 8.14453C34.1797 8.23828 33.8672 8.28516 33.5156 8.28516ZM31.7812 10.1719H35.25V24H31.7812V10.1719ZM46.3711 13.0547H39.2812V10.1719H52.8047L44.2734 21.1172H52.3359V24H37.8984L46.3711 13.0547ZM55.0312 19.6406C55.0312 18.9766 55.1758 18.3711 55.4648 17.8242C55.7539 17.2773 56.1875 16.8086 56.7656 16.418C57.3438 16.0195 58.0625 15.7148 58.9219 15.5039C59.7891 15.2852 60.7969 15.1758 61.9453 15.1758C62.7969 15.1758 63.6914 15.2383 64.6289 15.3633C65.5742 15.4883 66.5469 15.6797 67.5469 15.9375C67.5078 15.5 67.375 15.0977 67.1484 14.7305C66.9219 14.3555 66.6055 14.0352 66.1992 13.7695C65.8008 13.4961 65.3164 13.2852 64.7461 13.1367C64.1836 12.9883 63.543 12.9141 62.8242 12.9141C62.4336 12.9141 62.0039 12.9375 61.5352 12.9844C61.0664 13.0312 60.582 13.1016 60.082 13.1953C59.582 13.2891 59.0859 13.4062 58.5938 13.5469C58.1094 13.6875 57.6562 13.8555 57.2344 14.0508L56.1797 11.2031C56.7031 11.0156 57.2617 10.8438 57.8555 10.6875C58.457 10.5312 59.0703 10.3984 59.6953 10.2891C60.3203 10.1719 60.9453 10.082 61.5703 10.0195C62.1953 9.95703 62.8008 9.92578 63.3867 9.92578C65.9727 9.92578 67.8945 10.5859 69.1523 11.9062C70.4102 13.2266 71.0391 15.25 71.0391 17.9766V24H67.5703V22.6992C67.2109 22.9102 66.8164 23.1094 66.3867 23.2969C65.9648 23.4844 65.5039 23.6484 65.0039 23.7891C64.5039 23.9297 63.9648 24.0391 63.3867 24.1172C62.8164 24.2031 62.2109 24.2461 61.5703 24.2461C60.4922 24.2461 59.543 24.1289 58.7227 23.8945C57.9102 23.6602 57.2305 23.3359 56.6836 22.9219C56.1367 22.5078 55.7227 22.0234 55.4414 21.4688C55.168 20.9062 55.0312 20.2969 55.0312 19.6406ZM58.6875 19.5234C58.6875 19.75 58.7461 19.9688 58.8633 20.1797C58.9805 20.3828 59.168 20.5664 59.4258 20.7305C59.6836 20.8867 60.0117 21.0156 60.4102 21.1172C60.8164 21.2109 61.3047 21.2578 61.875 21.2578C62.4844 21.2578 63.0742 21.2031 63.6445 21.0938C64.2148 20.9844 64.7461 20.8398 65.2383 20.6602C65.7305 20.4805 66.1758 20.2734 66.5742 20.0391C66.9727 19.8047 67.3047 19.5625 67.5703 19.3125V18.7031C67.0391 18.5547 66.5117 18.4297 65.9883 18.3281C65.4727 18.2266 64.9766 18.1484 64.5 18.0938C64.0312 18.0312 63.5859 17.9883 63.1641 17.9648C62.75 17.9414 62.3867 17.9297 62.0742 17.9297C61.4258 17.9297 60.8867 17.9727 60.457 18.0586C60.0273 18.1445 59.6797 18.2617 59.4141 18.4102C59.1484 18.5508 58.9609 18.7188 58.8516 18.9141C58.7422 19.1094 58.6875 19.3125 58.6875 19.5234ZM75.5391 4.55859H79.0078V11.4727C79.3125 11.2617 79.6719 11.0625 80.0859 10.875C80.5 10.6875 80.9453 10.5234 81.4219 10.3828C81.8984 10.2422 82.3906 10.1328 82.8984 10.0547C83.4062 9.96875 83.9141 9.92578 84.4219 9.92578C85.5938 9.92578 86.668 10.0977 87.6445 10.4414C88.6289 10.7852 89.4727 11.2695 90.1758 11.8945C90.8789 12.5195 91.4258 13.2695 91.8164 14.1445C92.2148 15.0117 92.4141 15.9727 92.4141 17.0273C92.4141 18.1289 92.207 19.125 91.793 20.0156C91.3789 20.8984 90.8047 21.6562 90.0703 22.2891C89.3438 22.9141 88.4766 23.3984 87.4688 23.7422C86.4688 24.0781 85.3828 24.2461 84.2109 24.2461C83.7109 24.2461 83.2148 24.2148 82.7227 24.1523C82.2383 24.0898 81.7695 24.0039 81.3164 23.8945C80.8711 23.7852 80.4492 23.6562 80.0508 23.5078C79.6602 23.3516 79.3125 23.1836 79.0078 23.0039V24H75.5391V4.55859ZM79.0078 19.6523C79.3594 19.9336 79.7305 20.1719 80.1211 20.3672C80.5117 20.5625 80.9102 20.7227 81.3164 20.8477C81.7227 20.9727 82.1328 21.0664 82.5469 21.1289C82.9609 21.1836 83.3633 21.2109 83.7539 21.2109C84.5508 21.2109 85.2578 21.1055 85.875 20.8945C86.5 20.6758 87.0234 20.3789 87.4453 20.0039C87.875 19.6289 88.2031 19.1875 88.4297 18.6797C88.6562 18.1719 88.7695 17.6211 88.7695 17.0273C88.7695 16.4727 88.6562 15.9492 88.4297 15.457C88.2109 14.9648 87.8906 14.5352 87.4688 14.168C87.0547 13.793 86.5508 13.5 85.957 13.2891C85.3711 13.0703 84.7109 12.9609 83.9766 12.9609C83.5078 12.9609 83.0391 13.0078 82.5703 13.1016C82.1016 13.1875 81.6484 13.3125 81.2109 13.4766C80.7812 13.6406 80.375 13.8398 79.9922 14.0742C79.6172 14.3086 79.2891 14.5703 79.0078 14.8594V19.6523ZM94.9688 17.0391C94.9688 16.1016 95.1602 15.207 95.543 14.3555C95.9258 13.4961 96.4766 12.7383 97.1953 12.082C97.9141 11.4258 98.793 10.9023 99.832 10.5117C100.879 10.1211 102.066 9.92578 103.395 9.92578C104.715 9.92578 105.902 10.125 106.957 10.5234C108.02 10.9141 108.918 11.4531 109.652 12.1406C110.395 12.8281 110.961 13.6367 111.352 14.5664C111.75 15.4961 111.949 16.4922 111.949 17.5547C111.949 17.6875 111.945 17.832 111.938 17.9883C111.938 18.1367 111.93 18.2734 111.914 18.3984H98.8359C98.9844 18.8125 99.2227 19.1914 99.5508 19.5352C99.8867 19.8789 100.305 20.1758 100.805 20.4258C101.305 20.6758 101.883 20.8711 102.539 21.0117C103.195 21.1445 103.922 21.2109 104.719 21.2109C105.516 21.2109 106.309 21.1289 107.098 20.9648C107.887 20.793 108.641 20.5781 109.359 20.3203L110.531 22.9688C110.078 23.1797 109.617 23.3672 109.148 23.5312C108.688 23.6875 108.203 23.8203 107.695 23.9297C107.195 24.0312 106.668 24.1094 106.113 24.1641C105.566 24.2188 104.988 24.2461 104.379 24.2461C102.824 24.2461 101.461 24.0586 100.289 23.6836C99.1172 23.3086 98.1367 22.7969 97.3477 22.1484C96.5586 21.5 95.9648 20.7383 95.5664 19.8633C95.168 18.9883 94.9688 18.0469 94.9688 17.0391ZM108.27 15.6914C108.145 15.3086 107.949 14.9531 107.684 14.625C107.426 14.2891 107.102 14 106.711 13.7578C106.32 13.5078 105.867 13.3125 105.352 13.1719C104.836 13.0312 104.27 12.9609 103.652 12.9609C102.996 12.9609 102.398 13.0352 101.859 13.1836C101.32 13.332 100.848 13.5312 100.441 13.7812C100.035 14.0312 99.6953 14.3203 99.4219 14.6484C99.1562 14.9766 98.9609 15.3242 98.8359 15.6914H108.27ZM117.773 12.7734H114.434V10.1719H117.773V5.87109H121.242V10.1719H124.582V12.7734H121.242V24H117.773V12.7734ZM127.664 4.57031H131.133V11.2266C131.859 10.8281 132.668 10.5117 133.559 10.2773C134.457 10.043 135.398 9.92578 136.383 9.92578C137.523 9.92578 138.547 10.0938 139.453 10.4297C140.367 10.7656 141.141 11.25 141.773 11.8828C142.406 12.5078 142.891 13.2695 143.227 14.168C143.57 15.0664 143.742 16.0781 143.742 17.2031V24H140.285V17.3438C140.285 16.6875 140.18 16.0898 139.969 15.5508C139.758 15.0039 139.449 14.5352 139.043 14.1445C138.637 13.7539 138.141 13.4531 137.555 13.2422C136.977 13.0234 136.32 12.9141 135.586 12.9141C134.703 12.9141 133.883 13.0547 133.125 13.3359C132.367 13.6172 131.703 13.9727 131.133 14.4023V24H127.664V4.57031Z" fill="#363636"/>
</svg>
